<svg data-v-423bf9ae="" xmlns="http://www.w3.org/2000/svg" viewBox="0 0 525 90" class="iconLeft"><!----><!----><!----><g data-v-423bf9ae="" id="b4cce2f3-9171-4e55-b194-af03e21871c6" fill="#FFFFFF" transform="matrix(13.916091673212978,0,0,13.916091673212978,110.13917243178088,-60.09742122691982)"><path d="M2.09 7.54L2.09 7.54L2.09 7.54Q2.18 7.39 2.27 7.39L2.27 7.39L2.27 7.39Q2.35 7.40 2.41 7.54L2.41 7.54L2.41 7.54Q2.49 7.70 2.57 7.85L2.57 7.85L2.57 7.85Q2.65 8.00 2.72 8.17L2.72 8.17L2.81 8.38L2.81 8.38Q2.89 8.57 3.03 8.54L3.03 8.54L3.03 8.54Q3.04 8.54 3.08 8.53L3.08 8.53L3.08 8.53Q3.19 8.50 3.21 8.31L3.21 8.31L3.21 8.31Q3.23 8.26 3.23 8.20L3.23 8.20L3.23 8.20Q3.24 8.14 3.25 8.08L3.25 8.08L3.25 8.08Q3.27 7.97 3.29 7.88L3.29 7.88L3.29 7.88Q3.31 7.78 3.34 7.70L3.34 7.70L3.34 7.70Q3.36 7.64 3.40 7.55L3.40 7.55L3.40 7.55Q3.44 7.46 3.49 7.35L3.49 7.35L3.49 7.35Q3.64 7.02 3.75 6.68L3.75 6.68L3.75 6.68Q3.86 6.34 3.96 5.99L3.96 5.99L4.03 5.73L4.03 5.73Q4.08 5.54 4.14 5.48L4.14 5.48L4.14 5.48Q4.25 5.37 4.42 5.46L4.42 5.46L4.42 5.46Q4.55 5.54 4.48 5.74L4.48 5.74L4.48 5.74Q4.38 6.06 4.24 6.34L4.24 6.34L4.24 6.34Q4.20 6.42 4.18 6.51L4.18 6.51L4.18 6.51Q4.16 6.57 4.15 6.63L4.15 6.63L4.15 6.63Q4.13 6.69 4.11 6.75L4.11 6.75L4.11 6.75Q4.07 6.87 4.05 6.97L4.05 6.97L4.05 6.97Q4.03 7.06 4.01 7.14L4.01 7.14L4.01 7.14Q3.98 7.27 3.96 7.37L3.96 7.37L3.96 7.37Q3.94 7.46 3.92 7.51L3.92 7.51L3.92 7.51Q3.83 7.84 3.73 8.15L3.73 8.15L3.73 8.15Q3.62 8.46 3.50 8.76L3.50 8.76L3.50 8.76Q3.45 8.87 3.43 9.00L3.43 9.00L3.43 9.00Q3.40 9.12 3.38 9.23L3.38 9.23L3.38 9.23Q3.32 9.53 3.21 9.63L3.21 9.63L3.21 9.63Q3.13 9.68 3.04 9.68L3.04 9.68L3.04 9.68Q2.96 9.68 2.90 9.64L2.90 9.64L2.90 9.64Q2.83 9.60 2.78 9.53L2.78 9.53L2.78 9.53Q2.73 9.46 2.70 9.39L2.70 9.39L2.70 9.39Q2.67 9.31 2.65 9.24L2.65 9.24L2.65 9.24Q2.61 9.13 2.58 9.02L2.58 9.02L2.58 9.02Q2.56 8.91 2.52 8.79L2.52 8.79L2.52 8.79Q2.42 8.52 2.24 8.52L2.24 8.52L2.24 8.52Q2.06 8.52 1.98 8.70L1.98 8.70L1.98 8.70Q1.93 8.78 1.89 8.86L1.89 8.86L1.89 8.86Q1.86 8.93 1.84 8.99L1.84 8.99L1.84 8.99Q1.80 9.07 1.78 9.16L1.78 9.16L1.78 9.16Q1.76 9.24 1.74 9.32L1.74 9.32L1.74 9.33L1.74 9.33Q1.67 9.57 1.61 9.63L1.61 9.63L1.61 9.63Q1.56 9.67 1.41 9.67L1.41 9.67L1.41 9.67Q1.24 9.67 1.18 9.37L1.18 9.37L1.18 9.37Q1.16 9.28 1.14 9.22L1.14 9.22L1.14 9.22Q1.11 9.15 1.10 9.10L1.10 9.10L1.10 9.10Q0.94 8.75 0.83 8.39L0.83 8.39L0.83 8.39Q0.71 8.03 0.61 7.66L0.61 7.66L0.61 7.66Q0.54 7.44 0.48 7.21L0.48 7.21L0.48 7.21Q0.42 6.99 0.33 6.76L0.33 6.76L0.33 6.76Q0.28 6.61 0.23 6.47L0.23 6.47L0.23 6.47Q0.17 6.32 0.13 6.18L0.13 6.18L0.13 6.18Q0.10 6.10 0.07 6.01L0.07 6.01L0.07 6.01Q0.04 5.91 0.02 5.82L0.02 5.82L0.02 5.82Q-0.01 5.71-0.01 5.62L-0.01 5.62L-0.01 5.62Q0.01 5.43 0.18 5.42L0.18 5.42L0.18 5.42Q0.35 5.41 0.40 5.61L0.40 5.61L0.40 5.61Q0.45 5.78 0.49 5.94L0.49 5.94L0.49 5.94Q0.53 6.10 0.60 6.27L0.60 6.27L0.60 6.27Q0.69 6.50 0.79 6.72L0.79 6.72L0.79 6.72Q0.89 6.93 0.95 7.17L0.95 7.17L0.95 7.17Q0.98 7.28 1.02 7.38L1.02 7.38L1.02 7.38Q1.05 7.48 1.09 7.58L1.09 7.58L1.09 7.58Q1.16 7.75 1.18 7.88L1.18 7.88L1.18 7.88Q1.20 7.98 1.22 8.09L1.22 8.09L1.22 8.09Q1.24 8.20 1.26 8.29L1.26 8.29L1.26 8.29Q1.33 8.54 1.48 8.55L1.48 8.55L1.48 8.55Q1.63 8.58 1.76 8.32L1.76 8.32L1.76 8.32Q1.81 8.22 1.86 8.13L1.86 8.13L1.86 8.13Q1.91 8.03 1.97 7.93L1.97 7.93L1.97 7.93Q2.02 7.84 2.07 7.63L2.07 7.63L2.07 7.63Q2.07 7.61 2.08 7.58L2.08 7.58L2.08 7.58Q2.08 7.56 2.09 7.54ZM7.76 7.01L7.76 7.01L7.76 7.01Q8.00 7.01 8.25 7.02L8.25 7.02L8.25 7.02Q8.50 7.03 8.74 7.07L8.74 7.07L8.74 7.07Q8.93 7.10 9.04 6.99L9.04 6.99L9.04 6.99Q9.11 6.90 9.11 6.78L9.11 6.78L9.11 6.78Q9.11 6.66 9.11 6.55L9.11 6.55L9.11 6.55Q9.11 6.38 9.11 6.25L9.11 6.25L9.11 6.25Q9.11 6.13 9.11 6.04L9.11 6.04L9.11 6.04Q9.11 6.00 9.12 5.93L9.12 5.93L9.12 5.93Q9.12 5.87 9.12 5.79L9.12 5.79L9.12 5.79Q9.13 5.72 9.14 5.65L9.14 5.65L9.14 5.65Q9.15 5.58 9.17 5.54L9.17 5.54L9.17 5.54Q9.23 5.40 9.39 5.41L9.39 5.41L9.39 5.41Q9.57 5.43 9.57 5.72L9.57 5.72L9.57 5.72Q9.56 5.89 9.55 6.06L9.55 6.06L9.55 6.06Q9.54 6.23 9.55 6.40L9.55 6.40L9.55 6.41L9.55 6.41Q9.55 6.68 9.56 6.95L9.56 6.95L9.56 6.95Q9.58 7.23 9.59 7.49L9.59 7.49L9.59 7.49Q9.60 7.66 9.59 7.82L9.59 7.82L9.59 7.82Q9.58 7.99 9.58 8.16L9.58 8.16L9.58 8.16Q9.57 8.44 9.57 8.73L9.57 8.73L9.57 8.73Q9.57 9.01 9.57 9.30L9.57 9.30L9.57 9.30Q9.57 9.55 9.52 9.63L9.52 9.63L9.52 9.63Q9.50 9.67 9.41 9.69L9.41 9.69L9.41 9.69Q9.17 9.75 9.13 9.47L9.13 9.47L9.13 9.47Q9.10 9.13 9.11 8.77L9.11 8.77L9.11 8.77Q9.12 8.42 9.11 8.06L9.11 8.06L9.11 8.06Q9.10 7.93 9.07 7.77L9.07 7.77L9.07 7.77Q9.05 7.62 8.94 7.52L8.94 7.52L8.94 7.52Q8.84 7.44 8.59 7.44L8.59 7.44L8.59 7.44Q8.46 7.44 8.34 7.44L8.34 7.44L8.34 7.44Q8.22 7.45 8.10 7.44L8.10 7.44L7.71 7.44L7.71 7.44Q7.59 7.45 7.47 7.44L7.47 7.44L7.47 7.44Q7.35 7.43 7.23 7.42L7.23 7.42L7.23 7.42Q6.97 7.40 6.84 7.49L6.84 7.49L6.84 7.49Q6.68 7.63 6.68 7.95L6.68 7.95L6.68 7.95Q6.68 8.16 6.69 8.38L6.69 8.38L6.69 8.38Q6.69 8.59 6.69 8.80L6.69 8.80L6.69 8.80Q6.69 8.97 6.69 9.10L6.69 9.10L6.69 9.10Q6.68 9.22 6.68 9.31L6.68 9.31L6.68 9.31Q6.67 9.41 6.67 9.47L6.67 9.47L6.67 9.47Q6.66 9.54 6.64 9.59L6.64 9.59L6.64 9.59Q6.57 9.73 6.41 9.69L6.41 9.69L6.41 9.69Q6.24 9.67 6.24 9.44L6.24 9.44L6.24 9.44Q6.24 9.21 6.24 9.00L6.24 9.00L6.24 9.00Q6.24 8.78 6.25 8.55L6.25 8.55L6.25 8.55Q6.25 8.34 6.25 8.12L6.25 8.12L6.25 8.12Q6.24 7.91 6.24 7.69L6.24 7.69L6.24 7.69Q6.24 7.34 6.25 6.99L6.25 6.99L6.25 6.99Q6.25 6.64 6.26 6.30L6.26 6.30L6.26 6.30Q6.26 6.24 6.25 6.15L6.25 6.15L6.25 6.15Q6.25 6.05 6.24 5.91L6.24 5.91L6.24 5.91Q6.23 5.61 6.26 5.54L6.26 5.54L6.26 5.54Q6.35 5.41 6.47 5.41L6.47 5.41L6.47 5.41Q6.67 5.42 6.69 5.74L6.69 5.74L6.69 5.74Q6.70 5.82 6.70 5.88L6.70 5.88L6.70 5.88Q6.71 5.94 6.71 5.99L6.71 5.99L6.71 5.99Q6.71 6.02 6.71 6.08L6.71 6.08L6.71 6.08Q6.71 6.15 6.69 6.23L6.69 6.23L6.69 6.23Q6.68 6.33 6.67 6.43L6.67 6.43L6.67 6.43Q6.65 6.54 6.65 6.63L6.65 6.63L6.65 6.63Q6.64 6.85 6.73 6.93L6.73 6.93L6.73 6.93Q6.84 7.01 7.01 6.98L7.01 6.98L7.01 6.98Q7.10 6.97 7.17 6.97L7.17 6.97L7.17 6.97Q7.24 6.97 7.29 6.97L7.29 6.97L7.29 6.97Q7.40 6.98 7.52 6.99L7.52 6.99L7.52 6.99Q7.64 7.01 7.76 7.01ZM15.35 9.47L15.35 9.47L15.35 9.47Q15.35 9.65 15.21 9.69L15.21 9.69L15.21 9.69Q15.09 9.75 14.99 9.61L14.99 9.61L14.99 9.61Q14.94 9.54 14.91 9.49L14.91 9.49L14.91 9.49Q14.88 9.43 14.86 9.39L14.86 9.39L14.86 9.39Q14.77 9.18 14.69 9.03L14.69 9.03L14.69 9.03Q14.62 8.87 14.54 8.78L14.54 8.78L14.54 8.78Q14.38 8.55 14.18 8.49L14.18 8.49L14.18 8.49Q14.01 8.44 13.63 8.48L13.63 8.48L13.63 8.48Q13.41 8.50 13.22 8.51L13.22 8.51L13.22 8.51Q13.02 8.52 12.84 8.50L12.84 8.50L12.84 8.50Q12.45 8.48 12.26 8.76L12.26 8.76L12.24 8.78L12.24 8.79L12.24 8.79Q12.17 8.93 12.12 9.06L12.12 9.06L12.12 9.06Q12.08 9.19 12.02 9.32L12.02 9.32L11.87 9.54L11.87 9.54Q11.78 9.69 11.68 9.70L11.68 9.70L11.68 9.70Q11.63 9.72 11.54 9.65L11.54 9.65L11.54 9.65Q11.50 9.60 11.49 9.55L11.49 9.55L11.49 9.55Q11.48 9.49 11.49 9.43L11.49 9.43L11.49 9.43Q11.50 9.37 11.52 9.30L11.52 9.30L11.52 9.30Q11.55 9.24 11.57 9.19L11.57 9.19L11.73 8.85L11.73 8.85Q11.97 8.35 12.18 7.85L12.18 7.85L12.18 7.85Q12.39 7.34 12.62 6.83L12.62 6.83L12.62 6.83Q12.66 6.74 12.69 6.66L12.69 6.66L12.69 6.66Q12.72 6.58 12.76 6.51L12.76 6.51L12.76 6.51Q12.83 6.32 12.91 6.14L12.91 6.14L12.91 6.14Q12.98 5.95 13.08 5.76L13.08 5.76L13.18 5.61L13.18 5.61Q13.25 5.48 13.32 5.48L13.32 5.48L13.32 5.48Q13.39 5.46 13.50 5.59L13.50 5.59L13.50 5.59Q13.62 5.73 13.72 5.91L13.72 5.91L13.72 5.91Q13.83 6.10 13.90 6.26L13.90 6.26L13.90 6.26Q14.14 6.77 14.35 7.28L14.35 7.28L14.35 7.28Q14.56 7.79 14.80 8.28L14.80 8.28L14.80 8.28Q14.88 8.43 14.95 8.58L14.95 8.58L14.95 8.58Q15.02 8.74 15.10 8.88L15.10 8.88L15.10 8.88Q15.14 8.98 15.19 9.08L15.19 9.08L15.19 9.08Q15.23 9.17 15.27 9.27L15.27 9.27L15.27 9.27Q15.31 9.34 15.33 9.39L15.33 9.39L15.33 9.39Q15.35 9.44 15.35 9.47ZM14 7.56L14 7.56L14 7.56Q13.93 7.40 13.87 7.22L13.87 7.22L13.87 7.22Q13.80 7.05 13.71 6.88L13.71 6.88L13.71 6.88Q13.55 6.57 13.35 6.58L13.35 6.58L13.35 6.58Q13.28 6.58 13.22 6.62L13.22 6.62L13.22 6.62Q13.16 6.67 13.12 6.72L13.12 6.72L13.12 6.72Q13.08 6.78 13.04 6.85L13.04 6.85L13.04 6.85Q13.01 6.92 12.99 6.98L12.99 6.98L12.99 6.98Q12.91 7.18 12.84 7.40L12.84 7.40L12.84 7.40Q12.78 7.62 12.71 7.83L12.71 7.83L12.71 7.83Q12.67 7.98 12.73 8.05L12.73 8.05L12.73 8.05Q12.77 8.12 12.94 8.13L12.94 8.13L12.94 8.13Q13.09 8.14 13.21 8.15L13.21 8.15L13.21 8.15Q13.32 8.15 13.40 8.14L13.40 8.14L13.40 8.14Q13.55 8.14 13.79 8.10L13.79 8.10L13.79 8.10Q14.05 8.06 14.10 7.88L14.10 7.88L14.10 7.88Q14.12 7.77 14.07 7.69L14.07 7.69L14.07 7.69Q14.05 7.66 14.03 7.63L14.03 7.63L14.03 7.63Q14.01 7.59 14 7.56ZM19.95 5.75L19.95 5.75L19.95 5.75Q19.86 5.86 19.64 5.84L19.64 5.84L19.30 5.82L19.30 5.82Q19.20 5.82 19.10 5.81L19.10 5.81L19.10 5.81Q19.00 5.80 18.90 5.80L18.90 5.80L18.90 5.80Q18.70 5.80 18.60 5.89L18.60 5.89L18.60 5.89Q18.53 5.98 18.53 6.19L18.53 6.19L18.53 6.19Q18.53 6.28 18.54 6.37L18.54 6.37L18.54 6.37Q18.55 6.47 18.55 6.56L18.55 6.56L18.55 6.56Q18.55 6.79 18.56 6.96L18.56 6.96L18.56 6.96Q18.56 7.12 18.56 7.24L18.56 7.24L18.56 7.24Q18.56 7.59 18.52 7.94L18.52 7.94L18.52 7.94Q18.50 8.10 18.52 8.26L18.52 8.26L18.52 8.26Q18.54 8.43 18.55 8.59L18.55 8.59L18.55 8.59Q18.55 8.76 18.56 8.89L18.56 8.89L18.56 8.89Q18.56 9.02 18.56 9.11L18.56 9.11L18.56 9.11Q18.56 9.15 18.56 9.20L18.56 9.20L18.56 9.20Q18.56 9.26 18.55 9.35L18.55 9.35L18.55 9.35Q18.54 9.54 18.53 9.58L18.53 9.58L18.53 9.58Q18.44 9.73 18.29 9.69L18.29 9.69L18.29 9.69Q18.12 9.65 18.12 9.43L18.12 9.43L18.12 9.43Q18.11 9.22 18.13 9.01L18.13 9.01L18.13 9.01Q18.14 8.80 18.16 8.60L18.16 8.60L18.16 8.60Q18.18 8.36 18.15 8.11L18.15 8.11L18.15 8.11Q18.13 7.87 18.13 7.62L18.13 7.62L18.13 7.62Q18.13 7.40 18.15 7.17L18.15 7.17L18.15 7.17Q18.16 6.94 18.17 6.71L18.17 6.71L18.17 6.71Q18.17 6.27 18.03 6.08L18.03 6.08L18.03 6.08Q17.95 5.99 17.85 5.94L17.85 5.94L17.85 5.94Q17.74 5.89 17.61 5.87L17.61 5.87L17.61 5.87Q17.48 5.86 17.37 5.85L17.37 5.85L17.37 5.85Q17.25 5.84 17.14 5.84L17.14 5.84L17.14 5.84Q17.06 5.84 16.94 5.84L16.94 5.84L16.94 5.84Q16.81 5.84 16.74 5.80L16.74 5.80L16.74 5.80Q16.69 5.77 16.67 5.67L16.67 5.67L16.67 5.67Q16.66 5.59 16.69 5.54L16.69 5.54L16.69 5.54Q16.74 5.46 16.93 5.43L16.93 5.43L16.93 5.43Q16.95 5.43 17.01 5.43L17.01 5.43L17.01 5.43Q17.29 5.42 17.56 5.45L17.56 5.45L17.56 5.45Q17.83 5.48 18.12 5.46L18.12 5.46L18.12 5.46Q18.24 5.46 18.35 5.44L18.35 5.44L18.35 5.44Q18.46 5.43 18.59 5.43L18.59 5.43L18.59 5.43Q18.81 5.43 19.04 5.43L19.04 5.43L19.04 5.43Q19.27 5.43 19.50 5.42L19.50 5.42L19.50 5.42Q19.61 5.42 19.70 5.43L19.70 5.43L19.70 5.43Q19.78 5.43 19.84 5.46L19.84 5.46L19.84 5.46Q20.06 5.61 19.95 5.75ZM24.51 9.70L24.51 9.70L24.51 9.70Q24.29 9.67 24.29 9.44L24.29 9.44L24.29 9.44Q24.29 9.07 24.29 8.72L24.29 8.72L24.29 8.72Q24.29 8.36 24.29 7.99L24.29 7.99L24.29 7.99Q24.29 7.79 24.31 7.58L24.31 7.58L24.31 7.58Q24.32 7.43 24.32 7.30L24.32 7.30L24.32 7.30Q24.32 7.17 24.32 7.06L24.32 7.06L24.32 7.06Q24.31 6.99 24.30 6.90L24.30 6.90L24.30 6.90Q24.29 6.80 24.29 6.67L24.29 6.67L24.29 6.67Q24.29 6.60 24.29 6.51L24.29 6.51L24.29 6.51Q24.29 6.41 24.30 6.28L24.30 6.28L24.30 6.28Q24.31 6.19 24.31 6.11L24.31 6.11L24.31 6.11Q24.32 6.04 24.32 5.99L24.32 5.99L24.32 5.84L24.32 5.83L24.32 5.78L24.32 5.78Q24.29 5.61 24.32 5.54L24.32 5.54L24.32 5.54Q24.34 5.49 24.41 5.44L24.41 5.44L24.41 5.44Q24.68 5.30 24.74 5.61L24.74 5.61L24.74 5.61Q24.79 5.84 24.80 6.07L24.80 6.07L24.80 6.07Q24.81 6.29 24.79 6.51L24.79 6.51L24.79 6.51L24.79 6.51Q24.77 6.73 24.78 6.94L24.78 6.94L24.78 6.94Q24.79 7.15 24.77 7.36L24.77 7.36L24.77 7.36Q24.75 7.55 24.74 7.68L24.74 7.68L24.74 7.68Q24.73 7.82 24.72 7.92L24.72 7.92L24.72 7.92Q24.71 8.05 24.71 8.20L24.71 8.20L24.71 8.20Q24.71 8.35 24.71 8.51L24.71 8.51L24.71 8.51Q24.72 8.54 24.72 8.59L24.72 8.59L24.72 8.59Q24.72 8.63 24.72 8.70L24.72 8.70L24.72 8.70Q24.72 8.80 24.72 8.91L24.72 8.91L24.72 8.91Q24.72 9.02 24.73 9.13L24.73 9.13L24.73 9.13Q24.73 9.20 24.73 9.27L24.73 9.27L24.73 9.27Q24.73 9.33 24.73 9.40L24.73 9.40L24.73 9.40Q24.73 9.54 24.72 9.55L24.72 9.55L24.72 9.55Q24.69 9.68 24.51 9.70ZM29.72 5.56L29.72 5.56L29.72 5.56Q29.81 5.83 29.50 5.85L29.50 5.85L29.50 5.85Q29.09 5.88 28.67 5.86L28.67 5.86L28.67 5.86Q28.25 5.84 27.84 5.87L27.84 5.87L27.84 5.87Q27.68 5.89 27.46 5.85L27.46 5.85L27.46 5.85Q27.24 5.82 27.13 5.94L27.13 5.94L27.13 5.94Q27.04 6.03 27.06 6.17L27.06 6.17L27.06 6.17Q27.06 6.17 27.06 6.21L27.06 6.21L27.06 6.21Q27.06 6.24 27.06 6.33L27.06 6.33L27.06 6.33Q27.06 6.42 27.05 6.57L27.05 6.57L27.05 6.57Q27.04 6.83 27.13 6.94L27.13 6.94L27.13 6.94Q27.23 7.06 27.41 7.06L27.41 7.06L27.41 7.06Q27.52 7.07 27.68 7.07L27.68 7.07L27.68 7.07Q27.83 7.08 28.03 7.09L28.03 7.09L28.03 7.09Q28.06 7.10 28.14 7.09L28.14 7.09L28.14 7.09Q28.23 7.08 28.36 7.08L28.36 7.08L28.36 7.08Q28.44 7.07 28.56 7.06L28.56 7.06L28.56 7.06Q28.69 7.05 28.76 7.10L28.76 7.10L28.76 7.10Q28.83 7.15 28.83 7.27L28.83 7.27L28.83 7.27Q28.84 7.36 28.80 7.40L28.80 7.40L28.80 7.40Q28.74 7.47 28.55 7.47L28.55 7.47L28.55 7.47Q28.45 7.47 28.36 7.46L28.36 7.46L28.36 7.46Q28.27 7.46 28.18 7.45L28.18 7.45L28.18 7.45Q27.97 7.44 27.75 7.45L27.75 7.45L27.75 7.45Q27.66 7.46 27.56 7.47L27.56 7.47L27.56 7.47Q27.47 7.47 27.38 7.47L27.38 7.47L27.38 7.47Q27.16 7.47 27.09 7.55L27.09 7.55L27.09 7.55Q27.04 7.62 27.04 7.85L27.04 7.85L27.04 7.85Q27.04 8.16 27.05 8.46L27.05 8.46L27.05 8.46Q27.06 8.76 27.08 9.05L27.08 9.05L27.08 9.05Q27.08 9.11 27.08 9.18L27.08 9.18L27.08 9.18Q27.08 9.26 27.07 9.37L27.07 9.37L27.07 9.37Q27.06 9.57 26.98 9.64L26.98 9.64L26.98 9.64Q26.92 9.70 26.85 9.70L26.85 9.70L26.85 9.70Q26.79 9.71 26.74 9.68L26.74 9.68L26.74 9.68Q26.69 9.65 26.65 9.58L26.65 9.58L26.65 9.58Q26.62 9.52 26.61 9.45L26.61 9.45L26.61 9.45Q26.60 9.35 26.60 9.23L26.60 9.23L26.60 9.23Q26.61 9.11 26.62 8.96L26.62 8.96L26.62 8.96Q26.63 8.85 26.63 8.74L26.63 8.74L26.63 8.74Q26.63 8.62 26.63 8.50L26.63 8.50L26.63 8.50Q26.64 8.37 26.64 8.26L26.64 8.26L26.64 8.26Q26.65 8.16 26.66 8.08L26.66 8.08L26.66 8.08Q26.67 7.90 26.65 7.72L26.65 7.72L26.65 7.72Q26.63 7.53 26.63 7.35L26.63 7.35L26.63 6.59L26.63 6.59Q26.63 6.38 26.62 6.17L26.62 6.17L26.62 6.17Q26.61 5.95 26.61 5.74L26.61 5.74L26.61 5.71L26.61 5.71Q26.65 5.54 26.81 5.46L26.81 5.46L26.81 5.46Q26.91 5.41 27.13 5.41L27.13 5.41L27.13 5.41Q27.23 5.41 27.34 5.42L27.34 5.42L27.34 5.42Q27.45 5.42 27.56 5.42L27.56 5.42L27.56 5.42Q28.01 5.42 28.46 5.41L28.46 5.41L28.46 5.41Q28.90 5.40 29.35 5.41L29.35 5.41L29.35 5.41Q29.42 5.42 29.48 5.42L29.48 5.42L29.48 5.42Q29.54 5.43 29.61 5.44L29.61 5.44L29.61 5.44Q29.67 5.48 29.72 5.56Z"></path></g><!----><g data-v-423bf9ae="" id="4913a473-0e2c-481b-87c5-0b9b508ef1cb" transform="matrix(2.8125,0,0,2.8125,0,0)" stroke="none" fill="#746657"><path d="M9.382 8.675h13.943v13.943L32 31.293V0H.707zM22.618 23.325H8.675V9.382L0 .707V32h31.293z"></path></g><!----></svg>